<svg xmlns="http://www.w3.org/2000/svg" viewBox="0 0 32 32" fill="none">
  <defs>
    <linearGradient id="hg" x1="0%" y1="0%" x2="100%" y2="100%">
      <stop offset="0%" stop-color="#f43f5e"/>
      <stop offset="100%" stop-color="#c084fc"/>
    </linearGradient>
  </defs>
  <path d="M16 28C16 28 3 19 3 11C3 6.5 6.8 3 11 3C13.8 3 16 5 16 5C16 5 18.2 3 21 3C25.2 3 29 6.5 29 11C29 19 16 28 16 28Z" fill="url(#hg)"/>
  <circle cx="11" cy="10" r="2" fill="white" opacity="0.9"/>
  <circle cx="21" cy="10" r="2" fill="white" opacity="0.9"/>
  <circle cx="16" cy="15" r="2.5" fill="white" opacity="0.95"/>
  <line x1="11" y1="10" x2="16" y2="15" stroke="white" stroke-width="1.2" opacity="0.6"/>
  <line x1="21" y1="10" x2="16" y2="15" stroke="white" stroke-width="1.2" opacity="0.6"/>
  <line x1="11" y1="10" x2="21" y2="10" stroke="white" stroke-width="0.8" opacity="0.4"/>
</svg>
